HIERARCHY
ROOT Hips
{
	OFFSET 0.00000 0.00000 0.00000
	CHANNELS 6 Xposition Yposition Zposition Zrotation Yrotation Xrotation 
	JOINT LHipJoint
	{
		OFFSET 0 0 0
		CHANNELS 3 Zrotation Yrotation Xrotation
		JOINT LeftHip
		{
			OFFSET 1.29432 -1.88279 0.59910
			CHANNELS 3 Zrotation Yrotation Xrotation
			JOINT LeftKnee
			{
				OFFSET 2.63039 -7.22694 0.00000
				CHANNELS 3 Zrotation Yrotation Xrotation
				JOINT LeftAnkle
				{
					OFFSET 2.70674 -7.43672 0.00000
					CHANNELS 3 Zrotation Yrotation Xrotation
					JOINT LeftToe
					{
						OFFSET 0.15066 -0.41394 2.09027
						CHANNELS 3 Zrotation Yrotation Xrotation
						End Site
						{
							OFFSET 0.00000 -0.00000 1.07518
						}
					}
				}
			}
		}
	}
	JOINT RHipJoint
	{
		OFFSET 0 0 0
		CHANNELS 3 Zrotation Yrotation Xrotation
		JOINT RightHip
		{
			OFFSET -1.37068 -1.88279 0.59910
			CHANNELS 3 Zrotation Yrotation Xrotation
			JOINT RightKnee
			{
				OFFSET -2.57023 -7.06166 0.00000
				CHANNELS 3 Zrotation Yrotation Xrotation
				JOINT RightAnkle
				{
					OFFSET -2.76461 -7.59570 0.00000
					CHANNELS 3 Zrotation Yrotation Xrotation
					JOINT RightToe
					{
						OFFSET -0.24175 -0.64785 2.19719
						CHANNELS 3 Zrotation Yrotation Xrotation
						End Site
						{
							OFFSET -0.00000 -0.00000 1.14803
						}
					}
				}
			}
		}
	}
	JOINT lowerback
	{
		OFFSET 0 0 0
		CHANNELS 3 Zrotation Yrotation Xrotation
		JOINT Chest
		{
			OFFSET -0.03138 2.03983 -0.23106
			CHANNELS 3 Zrotation Yrotation Xrotation
			JOINT Chest2
			{
				OFFSET -0.00325 2.06238 -0.06878
				CHANNELS 3 Zrotation Yrotation Xrotation
				JOINT lowerneck
				{
					OFFSET 0 0 0
					CHANNELS 3 Zrotation Yrotation Xrotation
					JOINT Neck
					{
						OFFSET -0.00002 1.75318 0.18090
						CHANNELS 3 Zrotation Yrotation Xrotation
						JOINT Head
						{
							OFFSET 0.08806 1.75856 -0.25387
							CHANNELS 3 Zrotation Yrotation Xrotation
							End Site
							{
								OFFSET 0.02554 1.78597 -0.10684
							}
						}
					}
				}
				JOINT LeftCollar
				{
					OFFSET 0 0 0
					CHANNELS 3 Zrotation Yrotation Xrotation
					JOINT LeftShoulder
					{
						OFFSET 3.09657 1.33597 -0.04414
CHANNELS 3 Zrotation Xrotation Yrotation
						JOINT LeftElbow
						{
OFFSET 0 -5.342980 -0.000000
CHANNELS 3 Zrotation Xrotation Yrotation
							JOINT LeftWrist
							{
OFFSET 0 -3.672620 -0.000000
CHANNELS 3 Zrotation Xrotation Yrotation
								JOINT lhand
								{
									OFFSET 0 0 0
CHANNELS 3 Zrotation Xrotation Yrotation
									JOINT LFingers
									{
OFFSET 0 -0.599300 -0.000000
CHANNELS 3 Zrotation Xrotation Yrotation
										End Site
										{
OFFSET 0 -0.483170 -0.000000
										}
									}
								}
								JOINT LThumb
								{
OFFSET 0 0.000000 0.000000
CHANNELS 3 Zrotation Xrotation Yrotation
									End Site
									{
OFFSET 0 -0.490550 0.490550
									}
								}
							}
						}
					}
				}
				JOINT RightCollar
				{
					OFFSET 0 0 0
					CHANNELS 3 Zrotation Yrotation Xrotation
					JOINT RightShoulder
					{
						OFFSET -3.16460 1.32273 -0.23382
CHANNELS 3 Zrotation Xrotation Yrotation
						JOINT RightElbow
						{
OFFSET 0 -5.549670 0.033480
CHANNELS 3 Zrotation Xrotation Yrotation
							JOINT RightWrist
							{
OFFSET 0 -3.694010 0.000000
CHANNELS 3 Zrotation Xrotation Yrotation
								JOINT rhand
								{
									OFFSET 0 0 0
CHANNELS 3 Zrotation Xrotation Yrotation
									JOINT RFingers
									{
OFFSET 0 -0.638110 0.000000
CHANNELS 3 Zrotation Xrotation Yrotation
										End Site
										{
OFFSET 0 -0.514460 0.000000
										}
									}
								}
								JOINT RThumb
								{
OFFSET 0 0.000000 0.000000
CHANNELS 3 Zrotation Xrotation Yrotation
									End Site
									{
OFFSET 0 -0.522320 0.522320
									}
								}
							}
						}
					}
				}
			}
		}
	}
}
MOTION
Frames: 12
Frame Time: 0.008333333333333333
9.533600 16.463600 7.390100 93.275400 -86.721500 -91.904300 0.000000 0.000000 0.000000 -19.728900 -2.849400 -27.524800 11.387200 18.119400 64.032600 3.106300 -11.543000 -31.832400 0.000800 -0.178700 -0.491000 0.000000 0.000000 0.000000 16.531500 14.090700 -26.050900 -11.876500 -18.337900 65.596700 -3.190200 -0.807200 -34.151700 -1.046000 6.503900 -18.253600 -2.527000 -0.848100 7.995000 -0.974800 -1.419100 2.398900 0.549900 -0.733000 -1.964600 -6.432700 -5.891300 -11.143500 8.068200 -7.895700 9.141800 2.920100 -3.608100 5.152300 0.000000 0.000000 0.000000 35.954300 -2.845000 14.800400 30.035200 -40.923500 11.432700 23.377200 -3.704600 -32.246500 0.000000 0.000000 0.000000 -7.125000 0.000000 0.000000 -10.941100 64.161000 5.108400 0.000000 0.000000 0.000000 -26.942700 -5.636900 -21.081300 -39.217700 -47.599500 -17.859400 -40.752600 -31.971300 -29.354300 0.000000 0.000000 0.000000 7.125000 0.000000 -0.000000 -5.567000 -6.457700 -6.185500
9.513093 16.594483 7.401397 92.652213 -87.090404 -91.215707 0.000000 0.000000 0.000000 -19.296965 -2.053885 -27.090418 10.927491 17.896561 62.542376 2.802657 -12.701807 -30.252307 0.001016 0.101270 0.278324 0.000000 0.000000 0.000000 16.763405 13.331305 -25.598530 -11.428087 -18.135639 64.161089 -3.028953 0.432483 -32.894677 -0.901950 6.044838 -16.916780 -2.101253 -0.883357 7.793459 -0.823914 -1.418740 2.288955 0.463916 -0.729906 -1.972947 -6.460474 -5.911087 -11.096227 8.011573 -7.919445 9.230950 2.905206 -3.624146 5.172375 0.000000 0.000000 0.000000 37.386386 -2.766643 15.646858 30.579742 -41.383353 11.791675 23.094136 -4.434062 -32.449696 0.000000 0.000000 0.000000 -7.125000 0.000000 0.000000 -11.435131 64.285263 5.375706 0.000000 0.000000 0.000000 -28.404934 -5.518897 -22.331776 -40.157913 -48.159296 -18.557994 -41.741382 -32.756814 -29.263783 0.000000 0.000000 0.000000 7.125000 0.000000 0.000000 -6.135862 -6.739397 -6.852147
9.492411 16.726508 7.412518 92.698424 -87.357182 -91.152519 0.000000 0.000000 0.000000 -18.959033 -1.227635 -26.751796 10.504663 17.681273 61.158538 2.467577 -13.848847 -28.494611 0.007949 0.484201 1.330714 0.000000 0.000000 0.000000 16.839969 12.644971 -25.223786 -11.013614 -17.939174 62.822686 -2.850187 1.716511 -31.540225 -0.800576 5.707749 -15.939555 -1.752825 -0.918570 7.567330 -0.695991 -1.425669 2.154643 0.397953 -0.730368 -1.991172 -6.586072 -5.946593 -11.125307 7.978611 -7.955088 9.431184 2.909498 -3.644801 5.245445 0.000000 0.000000 0.000000 38.785146 -2.609869 16.397644 31.187290 -41.886586 12.195742 23.598535 -4.780352 -32.583476 0.000000 0.000000 0.000000 -7.125000 0.000000 0.000000 -10.927216 64.558106 5.198635 0.000000 0.000000 0.000000 -30.047580 -5.659459 -23.777635 -40.412614 -48.312299 -18.746834 -42.868469 -33.898321 -29.925560 0.000000 0.000000 0.000000 7.125000 0.000000 0.000000 -6.572610 -7.946863 -7.467160
9.471632 16.856724 7.423352 93.762299 -87.511001 -92.055038 0.000000 0.000000 0.000000 -18.723368 -0.352586 -26.524065 10.111246 17.470572 59.857565 2.106405 -14.917050 -26.565166 0.018207 0.867543 2.384372 0.000000 0.000000 0.000000 16.760653 12.054186 -24.926035 -10.626261 -17.746015 61.560162 -2.648795 2.971771 -30.068250 -0.753077 5.542066 -15.461585 -1.533102 -0.959513 7.289097 -0.568051 -1.449798 1.997516 0.404682 -0.739209 -2.000229 -6.826399 -5.963433 -11.193518 7.961861 -7.952116 9.716935 2.939338 -3.647943 5.353890 0.000000 0.000000 0.000000 40.105619 -2.344100 17.128488 31.860287 -42.433341 12.647168 24.393670 -4.861625 -32.759001 0.000000 0.000000 0.000000 -7.125000 0.000000 0.000000 -10.103320 64.953106 4.900170 0.000000 0.000000 0.000000 -31.821726 -5.939051 -25.246182 -40.372365 -48.288411 -18.716914 -43.851018 -35.114201 -30.932225 0.000000 0.000000 0.000000 7.125000 0.000000 0.000000 -6.833106 -9.495173 -7.918299
9.450910 16.977965 7.433569 96.913132 -87.496035 -94.960151 0.000000 0.000000 0.000000 -18.637024 0.625618 -26.472187 9.738529 17.259030 58.609320 1.723974 -15.733000 -24.429522 0.025042 1.019725 2.802996 0.000000 0.000000 0.000000 16.480971 11.636282 -24.725214 -10.258149 -17.551454 60.346382 -2.406960 4.025095 -28.400733 -0.799703 5.707055 -15.936981 -1.593902 -1.020817 6.882130 -0.388167 -1.518298 1.814755 0.623276 -0.769645 -1.954539 -7.251499 -5.878744 -11.227623 7.948981 -7.785688 10.054180 3.016184 -3.578724 5.467720 0.000000 0.000000 0.000000 41.224492 -1.870000 18.004950 32.622416 -43.036022 13.164224 24.437993 -4.871267 -33.239001 0.000000 0.000000 0.000000 -7.125000 0.000000 0.000000 -10.425527 65.444475 5.176326 0.000000 0.000000 0.000000 -33.653368 -6.126202 -26.353542 -40.837687 -48.557948 -19.064952 -44.009891 -35.788835 -31.459067 0.000000 0.000000 0.000000 7.125000 0.000000 0.000000 -6.768707 -10.157431 -7.906499
9.432100 17.111040 7.442472 100.152539 -87.401460 -97.960292 0.000000 0.000000 0.000000 -18.599031 1.516086 -26.376201 9.372026 17.038702 57.364481 1.337598 -16.531916 -22.173269 0.030862 1.131623 3.110933 0.000000 0.000000 0.000000 16.068667 11.281371 -24.504132 -9.902766 -17.352589 59.159796 -2.132971 5.595636 -26.440481 -0.690458 5.299005 -14.766532 -1.870817 -1.118399 6.512157 -0.167404 -1.649552 1.628228 1.009753 -0.830622 -1.922774 -7.518458 -5.652947 -11.048304 7.834977 -7.436196 10.131083 3.060039 -3.428940 5.439307 0.000000 0.000000 0.000000 42.312287 -1.304816 19.053779 33.302366 -43.558317 13.630957 24.049847 -5.039887 -33.445391 0.000000 0.000000 0.000000 -7.125000 0.000000 0.000000 -11.069933 65.539056 5.523426 0.000000 0.000000 0.000000 -35.378507 -6.365169 -27.234449 -41.781736 -49.085495 -19.777026 -43.962929 -35.815961 -31.280607 0.000000 0.000000 0.000000 7.125000 0.000000 0.000000 -6.794616 -9.936463 -7.915915
9.414980 17.249763 7.450472 102.567790 -87.331126 -100.159480 0.000000 0.000000 0.000000 -18.509362 2.279008 -26.229478 9.011106 16.812553 56.125159 0.948229 -17.317051 -19.807287 0.043801 1.333512 3.667153 0.000000 0.000000 0.000000 15.659073 10.835234 -24.294238 -9.552485 -17.148374 57.978914 -1.838723 7.137247 -24.336735 -0.618515 5.033001 -14.002842 -2.051791 -1.134659 6.221954 -0.055540 -1.671292 1.455144 1.223589 -0.837400 -1.930675 -7.430677 -5.506921 -10.869682 7.637738 -7.239122 10.159689 3.006608 -3.346277 5.391594 0.000000 0.000000 0.000000 43.648960 -1.015797 19.881302 33.902818 -44.011090 14.046003 23.878881 -5.246570 -33.314732 0.000000 0.000000 0.000000 -7.125000 0.000000 0.000000 -11.176671 65.360475 5.533665 0.000000 0.000000 0.000000 -36.937192 -6.502924 -28.343457 -42.691324 -49.583691 -20.466142 -43.927950 -35.627821 -31.070837 0.000000 0.000000 0.000000 7.125000 0.000000 0.000000 -6.835672 -9.685175 -7.940126
9.399389 17.392752 7.457744 103.815626 -87.313552 -101.223301 0.000000 0.000000 0.000000 -18.337679 2.899736 -26.024376 8.655513 16.580392 54.890215 0.553593 -18.089862 -17.301233 0.069025 1.682536 4.629564 0.000000 0.000000 0.000000 15.288251 10.253571 -24.098214 -9.205026 -16.937532 56.795938 -1.526818 8.491321 -22.119404 -0.640915 5.119650 -14.250591 -2.045980 -1.034114 6.026202 -0.098363 -1.531900 1.302583 1.163330 -0.764676 -1.984803 -6.932040 -5.510724 -10.759901 7.366345 -7.300388 10.208073 2.837670 -3.377406 5.363939 0.000000 0.000000 0.000000 45.312380 -1.119989 20.379129 34.428267 -44.399204 14.411919 24.070306 -5.463042 -32.844193 0.000000 0.000000 0.000000 -7.125000 0.000000 0.000000 -10.562344 64.947759 5.122740 0.000000 0.000000 0.000000 -38.307909 -6.481445 -29.807848 -43.433572 -49.977244 -21.032357 -43.947345 -35.317870 -30.991256 0.000000 0.000000 0.000000 7.125000 0.000000 0.000000 -6.868522 -9.603678 -7.970852
9.381545 17.538745 7.466451 103.220573 -87.322402 -100.523915 0.000000 0.000000 0.000000 -18.092391 3.462698 -25.718287 8.297258 16.331434 53.622974 0.112664 -18.876671 -14.198681 0.149828 2.451213 6.756430 0.000000 0.000000 0.000000 14.936616 9.606495 -23.798744 -8.850944 -16.708936 55.570286 -1.209792 9.528096 -19.766604 -0.788131 5.657429 -15.796147 -1.869262 -0.854159 5.883231 -0.252415 -1.281143 1.196452 0.885735 -0.638830 -2.029918 -6.399945 -5.740398 -10.887258 7.192866 -7.690015 10.511213 2.656852 -3.553835 5.480287 0.000000 0.000000 0.000000 47.032062 -1.584088 20.795019 35.038863 -44.838119 14.841336 23.798107 -5.728333 -32.687335 0.000000 0.000000 0.000000 -7.125000 0.000000 0.000000 -10.770864 64.715782 5.166632 0.000000 0.000000 0.000000 -39.597167 -6.135566 -31.411326 -44.179440 -50.358164 -21.605537 -43.705294 -34.706052 -30.678907 0.000000 0.000000 0.000000 7.125000 0.000000 0.000000 -6.825854 -9.146775 -7.875874
9.363843 17.686356 7.477822 102.158290 -87.245276 -99.346643 0.000000 0.000000 0.000000 -17.924276 3.954291 -25.405822 7.942095 16.073483 52.348977 -0.291535 -19.503756 -10.987600 0.194662 2.838161 7.828796 0.000000 0.000000 0.000000 14.444431 9.170671 -23.450506 -8.497195 -16.470301 54.330075 -0.896096 10.558399 -17.329066 -0.897664 6.034580 -16.885941 -1.871681 -0.787919 5.672888 -0.295227 -1.188207 1.115157 0.833284 -0.591490 -2.000142 -6.139101 -5.860403 -10.998486 7.040083 -7.883377 10.727091 2.544880 -3.643908 5.563521 0.000000 0.000000 0.000000 48.462082 -1.789831 21.542108 35.683572 -45.291403 15.298064 23.204605 -5.969312 -32.680875 0.000000 0.000000 0.000000 -7.125000 0.000000 0.000000 -11.480300 64.545086 5.464787 0.000000 0.000000 0.000000 -41.094871 -5.939180 -32.657151 -44.999388 -50.764825 -22.239190 -43.726166 -34.313193 -30.157352 0.000000 0.000000 0.000000 7.125000 0.000000 0.000000 -6.981686 -8.562644 -7.997381
9.346722 17.835206 7.490479 101.126596 -87.209816 -98.196237 0.000000 0.000000 0.000000 -17.687212 4.354691 -25.087239 7.593928 15.810476 51.083551 -0.646250 -19.980771 -7.801845 0.196379 2.839778 7.833935 0.000000 0.000000 0.000000 13.956618 8.914108 -23.060604 -8.144711 -16.222852 53.079241 -0.592447 11.559156 -14.860130 -0.967111 6.261080 -17.543865 -1.896918 -0.779268 5.432504 -0.238549 -1.170415 1.059887 0.900781 -0.582003 -1.921494 -5.998246 -5.912623 -11.091255 6.850752 -7.953676 10.850023 2.453177 -3.681656 5.608636 0.000000 0.000000 0.000000 49.742581 -1.856113 22.426440 36.327437 -45.735718 15.756945 22.614465 -6.140429 -32.744215 0.000000 0.000000 0.000000 -7.125000 0.000000 0.000000 -12.238713 64.444909 5.803562 0.000000 0.000000 0.000000 -42.747524 -5.834399 -33.730715 -45.832402 -51.168167 -22.885794 -43.907766 -34.089011 -29.633592 0.000000 0.000000 0.000000 7.125000 0.000000 0.000000 -7.224421 -8.043327 -8.225356
9.330965 17.985156 7.502927 100.819356 -87.404378 -97.774951 0.000000 0.000000 0.000000 -17.159003 4.608470 -24.761003 7.260280 15.546264 49.850416 -0.918665 -20.274628 -4.833270 0.131837 2.332076 6.424659 0.000000 0.000000 0.000000 13.673769 8.848199 -22.625934 -7.795162 -15.965547 51.819915 -0.311182 12.489512 -12.423433 -0.980782 6.304109 -17.669351 -1.737110 -0.768835 5.204124 -0.067804 -1.137317 1.040316 0.980649 -0.566173 -1.814644 -5.806490 -5.933705 -11.156661 6.534877 -7.963534 10.843475 2.321215 -3.697701 5.596979 0.000000 0.000000 0.000000 51.020039 -1.903315 23.223754 36.922130 -46.136210 16.184060 22.475092 -6.157482 -32.788106 0.000000 0.000000 0.000000 -7.125000 0.000000 0.000000 -12.439894 64.449730 5.901778 0.000000 0.000000 0.000000 -44.529446 -5.769929 -34.833686 -46.598632 -51.527214 -23.484013 -44.159243 -34.016482 -29.391542 0.000000 0.000000 0.000000 7.125000 0.000000 0.000000 -7.427473 -7.872870 -8.441432
